<svg width="24" height="24" viewBox="0 0 24 24" fill="none" xmlns="http://www.w3.org/2000/svg">
<g clip-path="url(#clip0_1_155)">
<path d="M17.9135 0C16.6286 0 15.5879 1.04446 15.5879 2.32561C15.5879 2.52098 15.7495 2.68253 15.9449 2.68253C16.1402 2.68253 16.3018 2.52098 16.3018 2.32561C16.3018 1.43519 17.0269 0.713838 17.9135 0.713838C18.804 0.713838 19.5253 1.43895 19.5253 2.32561V13.7545C19.5253 13.9499 19.6869 14.1115 19.8822 14.1115C20.0776 14.1115 20.2392 13.9499 20.2392 13.7545V2.32561C20.2392 1.04446 19.1947 0 17.9135 0V0Z" fill="#3762C7"/>
<path d="M8.84785 6.96932H7.26988V3.09581C7.26988 2.88917 7.43895 2.7201 7.64559 2.7201H8.47214C8.67878 2.7201 8.84785 2.88917 8.84785 3.09581V6.96932Z" fill="#A7CCF9"/>
<path d="M8.46842 2.7201H7.65314C7.6043 2.7201 7.55546 2.73137 7.51413 2.7464C7.6569 2.80276 7.75458 2.93801 7.75458 3.09956V6.96932H8.84788V3.09956C8.84788 2.89292 8.67881 2.7201 8.46842 2.7201Z" fill="#8CBDF9"/>
<path d="M7.27361 3.94115H8.85157V4.65499H7.27361V3.94115Z" fill="#4C5E71"/>
<path d="M5.69568 6.9693H4.11772V2.3068C4.11772 2.10017 4.28679 1.9311 4.49343 1.9311H5.31998C5.52661 1.9311 5.69568 2.10017 5.69568 2.3068V6.9693Z" fill="#A7DDA7"/>
<path d="M5.31626 1.93508H4.50098C4.45214 1.93508 4.4033 1.94635 4.36197 1.96138C4.50474 2.01774 4.60242 2.15299 4.60242 2.31454V6.96953H5.69572V2.31454C5.69572 2.10415 5.52665 1.93508 5.31626 1.93508Z" fill="#8ACE9B"/>
<path d="M4.11772 3.15216H5.69568V3.866H4.11772V3.15216Z" fill="#4C5E71"/>
<path d="M12.789 13.7547C12.789 12.868 12.0601 12.1542 11.1697 12.1805H9.31749V13.9275H12.789V13.7547Z" fill="#EABC73"/>
<path d="M16.3356 22.4257L15.9411 20.8478V20.4646H17.9136V22.6549H16.3469L16.3356 22.4257Z" fill="#3762C7"/>
<path d="M7.66441 22.4257L8.0589 20.8478V20.4646H6.09021V22.6549H7.6569L7.66441 22.4257Z" fill="#3762C7"/>
<path d="M20.6713 14.7952H3.33255V15.3324L4.24551 19.6042C4.39955 20.3293 5.04201 20.8515 5.7859 20.8515H18.2142C18.9581 20.8515 19.6006 20.3331 19.7546 19.6042L20.6713 15.3324V14.7952Z" fill="#7581F3"/>
<path d="M19.5779 14.7952V15.3324L18.6612 19.6042C18.5072 20.3293 17.8647 20.8515 17.1208 20.8515H18.2141C18.958 20.8515 19.6005 20.3331 19.7545 19.6042L20.6713 15.3324V14.7952H19.5779Z" fill="#3762C7"/>
<path d="M3.33253 15.3325C2.89671 15.3325 2.54355 14.9793 2.54355 14.5435C2.54355 14.1077 2.89671 13.7545 3.33253 13.7545H20.6713C21.1071 13.7545 21.4603 14.1077 21.4603 14.5435C21.4603 14.9793 21.1071 15.3325 20.6713 15.3325H3.33253Z" fill="#F4F2F4"/>
<path d="M20.6713 13.7545H19.578C20.0138 13.7545 20.3669 14.1077 20.3669 14.5435C20.3669 14.9793 20.0138 15.3325 19.578 15.3325H20.6713C21.1071 15.3325 21.4602 14.9793 21.4602 14.5435C21.4602 14.1077 21.1071 13.7545 20.6713 13.7545Z" fill="#E2DFE2"/>
<path d="M20.258 17.2636L20.4083 16.5498H3.59175L3.74579 17.2636H20.258Z" fill="#3762C7"/>
<path d="M7.27367 12.1804C6.40203 12.1804 5.69571 12.8868 5.69571 13.7584V18.094C5.69571 18.3119 5.87229 18.4885 6.0902 18.4885H9.24236C9.46027 18.4885 9.63685 18.3119 9.63685 18.094V13.7884C9.63685 12.9281 10.3094 12.203 11.1697 12.1804H7.27367Z" fill="#EFD27C"/>
<path d="M5.69571 15.3325H9.63685V16.9105H5.69571V15.3325Z" fill="#EAA96A"/>
<path d="M17.5191 3.90373C17.5191 3.0321 16.8128 2.32578 15.9412 2.32578C15.0695 2.32578 14.3632 3.0321 14.3632 3.90373V4.35458H17.5154L17.5191 3.90373Z" fill="#7581F3"/>
<path d="M15.9411 2.32578C15.7495 2.32578 15.5654 2.35959 15.3926 2.42346C15.9937 2.64512 16.422 3.22371 16.422 3.90373V4.35458H17.5153V3.90373C17.5191 3.0321 16.8128 2.32578 15.9411 2.32578Z" fill="#3762C7"/>
<path d="M17.5191 5.48135C17.9549 5.48135 18.3081 5.12818 18.3081 4.69237C18.3081 4.25655 17.9549 3.90339 17.5191 3.90339H14.367C13.9311 3.90339 13.578 4.25655 13.578 4.69237C13.578 5.12818 13.9311 5.48135 14.367 5.48135H17.5191Z" fill="#7581F3"/>
<path d="M17.5191 3.90339H16.4258C16.8616 3.90339 17.2148 4.25655 17.2148 4.69237C17.2148 5.12818 16.8616 5.48135 16.4258 5.48135H17.5191C17.9549 5.48135 18.3081 5.12818 18.3081 4.69237C18.3081 4.25655 17.9549 3.90339 17.5191 3.90339Z" fill="#3762C7"/>
<path d="M14.367 8.20145C14.1716 8.20145 14.0101 8.0399 14.0101 7.84453V7.05556C14.0101 6.86019 14.1716 6.69864 14.367 6.69864C14.5624 6.69864 14.7239 6.86019 14.7239 7.05556V7.84453C14.7239 8.0399 14.5624 8.20145 14.367 8.20145Z" fill="#A7CCF9"/>
<path d="M15.9411 8.20145C15.7458 8.20145 15.5842 8.0399 15.5842 7.84453V7.05556C15.5842 6.86019 15.7458 6.69864 15.9411 6.69864C16.1365 6.69864 16.2981 6.86019 16.2981 7.05556V7.84453C16.2981 8.0399 16.1403 8.20145 15.9411 8.20145Z" fill="#A7CCF9"/>
<path d="M17.5191 8.20145C17.3238 8.20145 17.1622 8.0399 17.1622 7.84453V7.05556C17.1622 6.86019 17.3238 6.69864 17.5191 6.69864C17.7145 6.69864 17.876 6.86019 17.876 7.05556V7.84453C17.876 8.0399 17.7145 8.20145 17.5191 8.20145Z" fill="#A7CCF9"/>
<path d="M10.0501 8.23924H2.91925C2.71262 8.23924 2.54355 8.07017 2.54355 7.86353V7.03698C2.54355 6.83034 2.71262 6.66128 2.91925 6.66128H10.0501C10.2568 6.66128 10.4258 6.83034 10.4258 7.03698V7.86353C10.4258 8.07017 10.2568 8.23924 10.0501 8.23924Z" fill="#EAA96A"/>
<path d="M23.4477 24H0.552279C0.345642 24 0.176575 23.8309 0.176575 23.6243V22.7977C0.176575 22.5911 0.345642 22.4221 0.552279 22.4221H23.4477C23.6543 22.4221 23.8234 22.5911 23.8234 22.7977V23.6243C23.8234 23.8347 23.6543 24 23.4477 24Z" fill="#EAA96A"/>
<path d="M23.444 22.4259H22.3507C22.5611 22.4259 22.7301 22.595 22.7301 22.8054V23.6206C22.7301 23.831 22.5611 24.0001 22.3507 24.0001H23.444C23.6543 24.0001 23.8234 23.831 23.8234 23.6206V22.8054C23.8234 22.595 23.6543 22.4259 23.444 22.4259Z" fill="#E5935D"/>
<path d="M10.0426 6.66128H8.9493C9.15969 6.66128 9.32876 6.83034 9.32876 7.04074V7.85602C9.32876 8.06641 9.15969 8.23548 8.9493 8.23548H10.0426C10.253 8.23548 10.4221 8.06641 10.4221 7.85602V7.04074C10.4258 6.8341 10.253 6.66128 10.0426 6.66128Z" fill="#E5935D"/>
</g>
<defs>
<clipPath id="clip0_1_155">
<rect width="24" height="24" fill="white"/>
</clipPath>
</defs>
</svg>
