<svg width="28" height="28" viewBox="0 0 28 28" fill="none" xmlns="http://www.w3.org/2000/svg">
<path d="M21.0037 9.93758L18.9224 10.4088L19.4239 9.03485H20.6513C20.945 9.03485 21.1604 9.31081 21.0892 9.59573L21.0037 9.93758Z" fill="#F5EBCD"/>
<path d="M19.4239 9.48624V9.03485H18.6479C18.3542 9.03485 18.1387 9.3108 18.21 9.59573L18.9725 12.6459H20.3267L21.0037 9.93763H19.8753C19.626 9.93758 19.4239 9.73551 19.4239 9.48624Z" fill="#F4DBB3"/>
<path d="M26.0693 15.3543L26.6475 21.7143C26.6691 21.9488 26.8657 22.1249 27.0967 22.1249C27.1103 22.1249 27.124 22.1243 27.1381 22.1232C27.3863 22.1005 27.5692 21.881 27.5467 21.6328L26.9759 15.3543H26.0693Z" fill="#5D5360"/>
<path d="M25.0643 14.4514C25.2825 14.4514 25.4694 14.2954 25.5084 14.0808L26.1997 10.2782C26.2842 9.81371 26.6953 9.45114 27.1658 9.48876C27.1951 9.49111 27.2239 9.49478 27.252 9.4997L26.6876 15.823L21.6806 15.8048V14.4515H25.0643V14.4514Z" fill="#7581F3"/>
<path d="M27.252 9.49966C27.745 9.58667 28.0748 10.0584 27.9853 10.5506L27.0825 15.5157C27.0045 15.945 26.6307 16.2569 26.1944 16.2569H21.6806C21.182 16.2569 20.7778 15.8527 20.7778 15.3542H25.3307C25.7604 15.3542 26.1305 15.0514 26.2156 14.6303L27.252 9.49966Z" fill="#3762C7"/>
<path d="M5.74286 15.3543L6.32107 21.7143C6.34267 21.9488 6.53927 22.1249 6.77022 22.1249C6.78389 22.1249 6.79756 22.1243 6.81167 22.1232C7.05984 22.1005 7.24277 21.881 7.2203 21.6328L6.64952 15.3543H5.74286Z" fill="#5D5360"/>
<path d="M1.93069 15.3543L1.35248 21.7143C1.33088 21.9488 1.13428 22.1249 0.903332 22.1249C0.88966 22.1249 0.875988 22.1243 0.861879 22.1232C0.613707 22.1005 0.430777 21.881 0.453254 21.6328L1.02403 15.3543H1.93069Z" fill="#5D5360"/>
<path d="M2.93568 14.4513C2.71753 14.4513 2.53061 14.2953 2.49156 14.0807L1.80031 10.278C1.71588 9.81357 1.30479 9.45099 0.834204 9.48862C0.804946 9.49097 0.77618 9.49463 0.748016 9.49955L1.31245 15.8228L6.31942 15.8046V14.4513H2.93568Z" fill="#7581F3"/>
<path d="M0.748013 9.49959C0.254951 9.5866 -0.0748698 10.0583 0.0147084 10.5505L0.917435 15.5156C0.995474 15.9449 1.36932 16.2568 1.80556 16.2568H6.31941C6.818 16.2568 7.22214 15.8526 7.22214 15.3541H2.66919C2.23956 15.3541 1.86944 15.0513 1.78434 14.6302L0.748013 9.49959Z" fill="#3762C7"/>
<path d="M9.71924 9.93752L7.63794 10.4088L8.13942 9.0348H9.36683C9.6605 9.0348 9.87597 9.31075 9.80471 9.59567L9.71924 9.93752Z" fill="#F5EBCD"/>
<path d="M8.13941 9.48619V9.0348H7.3634C7.06973 9.0348 6.85426 9.31075 6.92552 9.59567L7.68808 12.6458H9.0422L9.71928 9.93758H8.59086C8.34154 9.93752 8.13941 9.73545 8.13941 9.48619Z" fill="#F4DBB3"/>
<path d="M22.2573 15.3543L21.6791 21.7143C21.6575 21.9488 21.4609 22.1249 21.2299 22.1249C21.2163 22.1249 21.2026 22.1243 21.1885 22.1232C20.9403 22.1005 20.7574 21.881 20.7799 21.6328L21.3506 15.3543H22.2573V15.3543Z" fill="#5D5360"/>
<path d="M13.556 19.4166H14.4587V21.6735H13.556V19.4166Z" fill="#5D5360"/>
<path d="M16.7156 22.1248H11.2991C11.0496 22.1248 10.8477 21.9227 10.8477 21.6734C10.8477 21.4241 11.0496 21.222 11.2991 21.222H16.7156C16.9651 21.222 17.167 21.4241 17.167 21.6734C17.167 21.9227 16.9651 22.1248 16.7156 22.1248Z" fill="#6F6571"/>
<path d="M15.3614 7.22934C15.3614 7.4272 15.319 7.61517 15.2427 7.78464C15.0307 8.25561 14.5573 8.38768 14.0073 8.38768C13.2595 8.38768 12.9199 7.9772 12.9199 7.22934C12.9199 6.68023 12.98 6.20746 13.4498 5.99494C13.6198 5.91805 13.8085 5.87523 14.0073 5.87523C14.7552 5.87523 15.3614 6.48149 15.3614 7.22934Z" fill="#B3E59F"/>
<path d="M15.1183 8.58346H14.0073L13.3802 9.49734L13.8906 10.6093L15.211 9.93752L15.5308 9.21811C15.6634 8.91968 15.4449 8.58346 15.1183 8.58346Z" fill="#F4DBB3"/>
<path d="M14.0073 9.27728V8.58346H12.8964C12.5697 8.58346 12.3512 8.91968 12.4839 9.21816L14.0073 12.6459L15.211 9.93763H14.6676C14.3029 9.93758 14.0073 9.64199 14.0073 9.27728Z" fill="#EAC89F"/>
<path d="M22.6242 11.2468C22.6011 11.0161 22.407 10.8403 22.1751 10.8403H6.34766L5.68747 11.5937L5.20392 19.2499C5.77973 19.0006 5.99427 18.4759 6.89721 18.4759C8.08159 18.4759 8.08159 19.3786 9.26601 19.3786C10.4504 19.3786 10.4504 18.4759 11.6348 18.4759C12.8195 18.4759 12.8195 19.3786 14.0042 19.3786C15.1883 19.3786 15.1883 18.4759 16.3724 18.4759C17.5574 18.4759 17.5574 19.3786 18.7426 19.3786C19.9285 19.3786 19.9285 18.4759 21.1144 18.4759C22.019 18.4759 22.2336 19.0012 22.8109 19.2504L23.3954 18.9592L22.6242 11.2468Z" fill="#7581F3"/>
<path d="M14.6844 7.9064C13.9365 7.9064 13.3303 7.30014 13.3303 6.55228C13.3303 6.35382 13.3731 6.16477 13.4498 5.99496C12.9796 6.20732 12.6532 6.67993 12.6532 7.22937C12.6532 7.97722 13.2594 8.58349 14.0073 8.58349C14.5567 8.58349 15.0304 8.25482 15.2427 7.78467C15.0729 7.86128 14.8828 7.9064 14.6844 7.9064Z" fill="#95D6A4"/>
<path d="M6.89721 18.9652C8.08158 18.9652 8.08158 19.8679 9.26596 19.8679C10.4504 19.8679 10.4504 18.9652 11.6348 18.9652C12.8195 18.9652 12.8195 19.8679 14.0042 19.8679C15.1883 19.8679 15.1883 18.9652 16.3723 18.9652C17.5574 18.9652 17.5574 19.8679 18.7425 19.8679C19.9284 19.8679 19.9284 18.9652 21.1144 18.9652C22.019 18.9652 22.2336 19.4905 22.8109 19.7397C23.121 19.8735 23.4604 19.61 23.4268 19.2739L23.3953 18.9593C23.1774 18.9434 23.0719 18.8693 22.8471 18.6982C22.5145 18.445 22.0119 18.0624 21.1144 18.0624C20.2169 18.0624 19.7143 18.445 19.3817 18.6982C19.1265 18.8924 19.031 18.9651 18.7426 18.9651C18.4547 18.9651 18.3593 18.8925 18.1045 18.6984C17.772 18.4451 17.2696 18.0624 16.3724 18.0624C15.4754 18.0624 14.9733 18.4453 14.6409 18.6986C14.3865 18.8926 14.2914 18.9651 14.0042 18.9651C13.7166 18.9651 13.6213 18.8925 13.3666 18.6985C13.0342 18.4452 12.5319 18.0624 11.6347 18.0624C10.7377 18.0624 10.2354 18.4452 9.90307 18.6985C9.64855 18.8926 9.55328 18.9651 9.2659 18.9651C8.97852 18.9651 8.88331 18.8926 8.62873 18.6985C8.2964 18.4452 7.79409 18.0624 6.8971 18.0624C6.89125 18.0624 6.8854 18.0624 6.87955 18.0624C6.20902 18.0662 5.67171 17.5173 5.73925 16.8502L6.34755 10.8404H5.83955C5.60768 10.8404 5.41348 11.0161 5.39046 11.2468L4.58791 19.2735C4.55428 19.6097 4.89389 19.8735 5.20397 19.7392C5.77972 19.4899 5.99432 18.9652 6.89721 18.9652Z" fill="#3762C7"/>
</svg>
