<svg width="24" height="24" viewBox="0 0 24 24" fill="none" xmlns="http://www.w3.org/2000/svg">
<path d="M22.5 5.18853V13.4854L22.0312 14.2485H1.96875V14.2481L1.5 13.507V5.18853C1.5 4.41181 2.12953 3.78228 2.90625 3.78228H21.0938C21.8705 3.78228 22.5 4.41181 22.5 5.18853Z" fill="#3762C7"/>
<path d="M5.36297 3.78228C4.56328 3.78228 3.91453 4.43056 3.91453 5.23072V14.2481H1.96875L1.5 13.507V5.18853C1.5 4.41181 2.12953 3.78228 2.90625 3.78228H5.36297Z" fill="#3762C7"/>
<path d="M20.985 5.9854V13.2173H3.01498V5.9854C3.01498 5.59728 3.32952 5.28228 3.71811 5.28228H20.2819C20.6705 5.28228 20.985 5.59728 20.985 5.9854Z" fill="white"/>
<path d="M10.5 8.9854V11.751H5.25V8.9854C5.25 8.59728 5.565 8.28228 5.95312 8.28228H9.79688C10.185 8.28228 10.5 8.59728 10.5 8.9854Z" fill="#EDF7FC"/>
<path d="M10.5 10.3162V11.751H5.25V8.9854C5.25 8.59728 5.565 8.28228 5.95312 8.28228H6.69891V9.59197C6.69891 9.99181 7.02328 10.3162 7.42313 10.3162H10.5Z" fill="#DCE9F7"/>
<path d="M18.75 8.9854V11.751H13.5V8.9854C13.5 8.59728 13.815 8.28228 14.2031 8.28228H18.0469C18.435 8.28228 18.75 8.59728 18.75 8.9854Z" fill="#EDF7FC"/>
<path d="M18.75 10.3162V11.751H13.5V8.9854C13.5 8.59728 13.815 8.28228 14.2031 8.28228H14.9484V9.59197C14.9484 9.99181 15.2728 10.3162 15.6731 10.3162H18.75Z" fill="#DCE9F7"/>
<path d="M3.91452 5.28228V13.2168H3.01498V5.98541C3.01498 5.59728 3.32952 5.28228 3.71811 5.28228H3.91452Z" fill="#F0F0F0"/>
<path d="M20.985 11.9734V13.2173H3.01498V11.9734C3.01498 11.5919 3.32947 11.2823 3.71694 11.2823H20.283C20.6705 11.2823 20.985 11.5919 20.985 11.9734Z" fill="#BED9FD"/>
<path d="M6.14895 11.2822C5.7493 11.2822 5.42548 11.601 5.42548 11.994V13.2172H3.01545L3.01498 13.2158V11.9733C3.01498 11.5918 3.32947 11.2822 3.71694 11.2822H6.14895V11.2822Z" fill="#9EC8FC"/>
<path d="M22.5 13.4854V16.251H1.5V13.4854C1.5 13.0973 1.815 12.7823 2.20312 12.7823H21.7969C22.185 12.7823 22.5 13.0973 22.5 13.4854Z" fill="#EDF7FC"/>
<path d="M22.5 14.8166V16.251H1.5V13.4854C1.5 13.0973 1.815 12.7823 2.20312 12.7823H3.91453V14.092C3.91453 14.4923 4.23844 14.8166 4.63875 14.8166H22.5Z" fill="#DCE9F7"/>
<path d="M1.50011 19.8134H4.50006V21.7822H1.50011V19.8134Z" fill="#3762C7"/>
<path d="M19.4999 19.8134H22.4999V21.7822H19.4999V19.8134Z" fill="#3762C7"/>
<path d="M0 16.1103V19.9542C0 20.1354 0.146906 20.2823 0.328125 20.2823H23.6719C23.8531 20.2823 24 20.1354 24 19.9542V16.1103C24 15.9291 23.8531 15.7822 23.6719 15.7822H0.328125C0.146906 15.7822 0 15.9291 0 16.1103Z" fill="#7581F3"/>
<path d="M2.41448 15.7822V20.2823H0.328125C0.146906 20.2823 0 20.1354 0 19.9542V16.1103C0 15.9291 0.146906 15.7822 0.328125 15.7822H2.41448Z" fill="#3762C7"/>
<path d="M22.1718 18.7822H1.82823C1.64701 18.7822 1.50011 18.6353 1.50011 18.454V17.6103C1.50011 17.4291 1.64701 17.2822 1.82823 17.2822H22.1718C22.353 17.2822 22.4999 17.4291 22.4999 17.6103V18.454C22.4999 18.6353 22.353 18.7822 22.1718 18.7822Z" fill="#3762C7"/>
<path d="M2.41446 17.2822V18.782H1.82796C1.64675 18.782 1.49984 18.6351 1.49984 18.4539V17.6103C1.49984 17.4291 1.64675 17.2822 1.82796 17.2822H2.41446Z" fill="#3762C7"/>
</svg>
