<svg width="68" height="68" viewBox="0 0 68 68" fill="none" xmlns="http://www.w3.org/2000/svg">
<circle cx="34" cy="34" r="34" fill="#F9F9F9"/>
<circle cx="34" cy="34" r="22.6667" fill="#FF9F00"/>
<g clip-path="url(#clip0_1_92)">
<path d="M39.9756 33.8429C40.0438 34.1154 39.9586 34.422 39.7371 34.6265L34.0303 40.3334L31.2194 43.1442C30.9298 43.4508 30.4698 43.4849 30.1292 43.2464C29.7884 42.9909 29.6691 42.548 29.8565 42.1732L32.8207 36.2278L28.6471 34.8309C28.3744 34.7457 28.153 34.5072 28.0848 34.2176C28.0166 33.9451 28.1019 33.6384 28.3233 33.4339L36.8411 24.9162C37.1306 24.6096 37.5906 24.5756 37.9313 24.814C38.272 25.0696 38.3913 25.5125 38.2039 25.8872L35.2397 31.8326L39.4133 33.2295C39.686 33.3147 39.9075 33.5532 39.9756 33.8429Z" fill="#414141"/>
<path d="M48.5672 34.0303C48.5672 34.5072 48.1924 34.8821 47.7154 34.8821C47.2383 34.8821 46.8636 34.5072 46.8636 34.0303C46.8636 26.9776 41.0829 21.1969 34.0303 21.1969C29.9417 21.1969 26.0691 23.2298 23.6842 26.4666L25.4046 26.3644C25.8646 26.3473 26.2734 26.688 26.3076 27.165C26.3417 27.625 25.9839 28.0338 25.5069 28.0679L22.0999 28.2723C21.6228 28.3064 21.1969 27.8635 21.1969 27.4206V23.809C21.1969 23.332 21.5717 22.9573 22.0487 22.9573C22.5257 22.9573 22.9005 23.332 22.9005 23.809V24.746C25.6261 21.5092 29.7033 19.4934 34.0303 19.4934C42.0199 19.4934 48.5672 26.0407 48.5672 34.0303Z" fill="white"/>
<path d="M46.8636 40.64V44.2515C46.8636 44.7285 46.4889 45.1033 46.0118 45.1033C45.5348 45.1033 45.1601 44.7285 45.1601 44.2515V43.3146C42.4345 46.5513 38.3572 48.5672 34.0303 48.5672C26.0407 48.5672 19.4934 42.0199 19.4934 34.0303C19.4934 33.5533 19.8681 33.1785 20.3451 33.1785C20.8222 33.1785 21.1969 33.5533 21.1969 34.0303C21.1969 41.083 26.9776 46.8636 34.0303 46.8636C38.1188 46.8636 41.9915 44.8307 44.3764 41.594L42.6559 41.6962C42.1959 41.7302 41.7871 41.3726 41.753 40.8955C41.7189 40.4356 42.0767 40.0267 42.5536 39.9927L45.9607 39.7883C46.4207 39.7542 46.8636 40.163 46.8636 40.64Z" fill="white"/>
<path d="M39.7371 34.6264L34.0303 40.3333V27.7271L36.8412 24.9162C37.1307 24.6096 37.5907 24.5756 37.9314 24.814C38.2721 25.0696 38.3914 25.5125 38.204 25.8872L35.2398 31.8326L39.4135 33.2295C39.6861 33.3147 39.9075 33.5532 39.9757 33.8428C40.0438 34.1154 39.9585 34.422 39.7371 34.6264Z" fill="black"/>
<path d="M46.8636 40.6401V44.2516C46.8636 44.7286 46.4889 45.1034 46.0118 45.1034C45.5348 45.1034 45.1601 44.7286 45.1601 44.2516V43.3147C42.4345 46.5514 38.3572 48.5673 34.0303 48.5673V46.8637C38.1188 46.8637 41.9915 44.8308 44.3764 41.5941L42.6559 41.6963C42.1959 41.7303 41.7871 41.3726 41.753 40.8956C41.7189 40.4357 42.0767 40.0268 42.5536 39.9928L45.9607 39.7883C46.4207 39.7543 46.8636 40.1631 46.8636 40.6401Z" fill="#F9F9F9"/>
<path d="M48.5672 34.0303C48.5672 34.5072 48.1924 34.8821 47.7154 34.8821C47.2383 34.8821 46.8636 34.5072 46.8636 34.0303C46.8636 26.9776 41.0829 21.1969 34.0303 21.1969V19.4934C42.0199 19.4934 48.5672 26.0407 48.5672 34.0303Z" fill="#F9F9F9"/>
</g>
<defs>
<clipPath id="clip0_1_92">
<rect width="29.0738" height="29.0738" fill="white" transform="translate(19.4934 19.4934)"/>
</clipPath>
</defs>
</svg>
