<svg width="24" height="24" viewBox="0 0 24 24" fill="none" xmlns="http://www.w3.org/2000/svg">
<g clip-path="url(#clip0_1_253)">
<path d="M15.4688 11.25V13.125C15.4688 13.6428 15.049 14.0625 14.5312 14.0625V15H12.6562V14.0625C12.1385 14.0625 11.7188 13.6428 11.7188 13.125V11.25H15.4688Z" fill="#D5DCED"/>
<path d="M15.4688 11.25V13.125C15.4688 13.6428 15.049 14.0625 14.5312 14.0625V14.5312H13.125V14.0625C13.6428 14.0625 14.0625 13.6428 14.0625 13.125V11.25H15.4688Z" fill="#AFB9D2"/>
<path d="M21.9141 6.5625V7.96875C21.9141 8.42105 21.546 8.78906 21.0938 8.78906H17.3438C16.8915 8.78906 16.5234 8.42105 16.5234 7.96875V6.5625C16.5234 6.36834 16.6808 6.21094 16.875 6.21094C17.0692 6.21094 17.2266 6.36834 17.2266 6.5625V7.96875C17.2266 8.03334 17.2791 8.08594 17.3438 8.08594H21.0938C21.1584 8.08594 21.2109 8.03334 21.2109 7.96875V6.5625C21.2109 6.36834 21.3683 6.21094 21.5625 6.21094C21.7567 6.21094 21.9141 6.36834 21.9141 6.5625ZM15.5859 10.8984H13.9453V10.7812C13.9453 10.5871 13.788 10.4297 13.5938 10.4297C13.3995 10.4297 13.2422 10.5871 13.2422 10.7812V10.8984H11.6016C11.4074 10.8984 11.25 11.0558 11.25 11.25C11.25 11.4442 11.4074 11.6016 11.6016 11.6016H15.5859C15.7801 11.6016 15.9375 11.4442 15.9375 11.25C15.9375 11.0558 15.7801 10.8984 15.5859 10.8984Z" fill="#8A90A7"/>
<path d="M7.73438 15.3594H1.64062C1.5112 15.3594 1.40625 15.2544 1.40625 15.125V6.32812C1.40625 6.1987 1.5112 6.09375 1.64062 6.09375H7.73438C7.8638 6.09375 7.96875 6.1987 7.96875 6.32812V15.125C7.96875 15.2544 7.8638 15.3594 7.73438 15.3594Z" fill="#3762C7"/>
<path d="M22.5938 14.7656V22.7344C22.5938 22.8638 22.4888 22.9688 22.3594 22.9688H1.64062C1.5112 22.9688 1.40625 22.8638 1.40625 22.7344V14.7656C1.40625 14.6362 1.5112 14.5312 1.64062 14.5312H22.3594C22.4888 14.5312 22.5938 14.6362 22.5938 14.7656ZM22.3594 0H1.64062C1.5112 0 1.40625 0.104953 1.40625 0.234375V6.32812C1.40625 6.45755 1.5112 6.5625 1.64062 6.5625H22.3594C22.4888 6.5625 22.5938 6.45755 22.5938 6.32812V0.234375C22.5938 0.104953 22.4888 0 22.3594 0Z" fill="#7581F3"/>
<path d="M22.5938 14.7656V22.7344C22.5938 22.8638 22.4888 22.9688 22.3594 22.9688H20.7032C20.8326 22.9688 20.9375 22.8638 20.9375 22.7344V14.7656C20.9375 14.6362 20.8326 14.5312 20.7032 14.5312H22.3594C22.4888 14.5312 22.5938 14.6362 22.5938 14.7656ZM22.3594 0H20.7032C20.8326 0 20.9375 0.104953 20.9375 0.234375V6.32812C20.9375 6.45755 20.8326 6.5625 20.7032 6.5625H22.3594C22.4888 6.5625 22.5938 6.45755 22.5938 6.32812V0.234375C22.5938 0.104953 22.4888 0 22.3594 0Z" fill="#3762C7"/>
<path d="M7.61719 0H8.32031V6.5625H7.61719V0ZM15.6797 0V6.5625H16.3828V0H15.6797ZM12 15.1172C11.8058 15.1172 11.6484 15.2746 11.6484 15.4688V22.5C11.6484 22.6942 11.8058 22.8516 12 22.8516C12.1942 22.8516 12.3516 22.6942 12.3516 22.5V15.4688C12.3516 15.2746 12.1942 15.1172 12 15.1172Z" fill="#EFD27C"/>
<path d="M20.1562 11.7188H18.2812C18.0224 11.7188 17.8125 11.5089 17.8125 11.25V8.4375C17.8125 8.17861 18.0224 7.96875 18.2812 7.96875H20.1562C20.4151 7.96875 20.625 8.17861 20.625 8.4375V11.25C20.625 11.5089 20.4151 11.7188 20.1562 11.7188Z" fill="#EFD27C"/>
<path d="M20.625 8.4375V11.25C20.625 11.5089 20.4151 11.7188 20.1562 11.7188H18.2812C18.0224 11.7188 17.8125 11.5089 17.8125 11.25V10.7009C17.9592 10.7527 18.1169 10.7812 18.2812 10.7812C19.0579 10.7812 19.6875 10.1517 19.6875 9.375V7.96875H20.1562C20.4151 7.96875 20.625 8.17861 20.625 8.4375Z" fill="#EAA96A"/>
<path d="M5.15625 9.60916H4.21875C3.57155 9.60916 3.04688 9.08449 3.04688 8.43728C3.04688 8.30786 3.15183 8.20291 3.28125 8.20291H6.09375C6.22317 8.20291 6.32812 8.30786 6.32812 8.43728C6.32812 9.08449 5.80345 9.60916 5.15625 9.60916Z" fill="#8A90A7"/>
<path d="M6.32812 12.4219C6.32812 13.328 5.59359 14.0625 4.6875 14.0625C3.78141 14.0625 3.04688 13.328 3.04688 12.4219C3.04688 12.2925 3.15183 12.1875 3.28125 12.1875H6.09375C6.22317 12.1875 6.32812 12.2925 6.32812 12.4219ZM6.09375 9.375H3.28125C3.15183 9.375 3.04688 9.47995 3.04688 9.60938C3.04688 10.2566 3.57155 10.7812 4.21875 10.7812H5.15625C5.80345 10.7812 6.32812 10.2566 6.32812 9.60938C6.32812 9.47995 6.22317 9.375 6.09375 9.375Z" fill="#D5DCED"/>
<path d="M7.96875 10.4297V11.1328H1.40625V10.4297H7.96875Z" fill="#EFD27C"/>
<path d="M24 0.234375V1.64062C24 1.77005 23.895 1.875 23.7656 1.875H0.234375C0.104953 1.875 0 1.77005 0 1.64062V0.234375C0 0.104953 0.104953 0 0.234375 0H23.7656C23.895 0 24 0.104953 24 0.234375ZM23.7656 14.0625H0.234375C0.104953 14.0625 0 14.1675 0 14.2969V15.7031C0 15.8325 0.104953 15.9375 0.234375 15.9375H23.7656C23.895 15.9375 24 15.8325 24 15.7031V14.2969C24 14.1675 23.895 14.0625 23.7656 14.0625ZM23.7656 22.125H0.234375C0.104953 22.125 0 22.23 0 22.3594V23.7656C0 23.895 0.104953 24 0.234375 24H23.7656C23.895 24 24 23.895 24 23.7656V22.3594C24 22.23 23.895 22.125 23.7656 22.125Z" fill="#3762C7"/>
<path d="M24 0.234375V1.64062C24 1.77005 23.895 1.875 23.7656 1.875H22.3594C22.4888 1.875 22.5938 1.77005 22.5938 1.64062V0.234375C22.5938 0.104953 22.4888 0 22.3594 0H23.7656C23.895 0 24 0.104953 24 0.234375ZM23.7656 14.0625H22.3594C22.4888 14.0625 22.5938 14.1675 22.5938 14.2969V15.7031C22.5938 15.8325 22.4888 15.9375 22.3594 15.9375H23.7656C23.895 15.9375 24 15.8325 24 15.7031V14.2969C24 14.1675 23.895 14.0625 23.7656 14.0625ZM23.7656 22.125H22.3594C22.4888 22.125 22.5938 22.23 22.5938 22.3594V23.7656C22.5938 23.895 22.4888 24 22.3594 24H23.7656C23.895 24 24 23.895 24 23.7656V22.3594C24 22.23 23.895 22.125 23.7656 22.125Z" fill="#3762C7"/>
<path d="M10.6641 17.8125V19.6875C10.6641 19.8817 10.5067 20.0391 10.3125 20.0391C10.1183 20.0391 9.96094 19.8817 9.96094 19.6875V17.8125C9.96094 17.6183 10.1183 17.4609 10.3125 17.4609C10.5067 17.4609 10.6641 17.6183 10.6641 17.8125ZM13.5938 17.4609C13.3995 17.4609 13.2422 17.6183 13.2422 17.8125V19.6875C13.2422 19.8817 13.3995 20.0391 13.5938 20.0391C13.788 20.0391 13.9453 19.8817 13.9453 19.6875V17.8125C13.9453 17.6183 13.788 17.4609 13.5938 17.4609ZM13.875 4.80469H10.125C9.93084 4.80469 9.77344 4.96209 9.77344 5.15625C9.77344 5.35041 9.93084 5.50781 10.125 5.50781H13.875C14.0692 5.50781 14.2266 5.35041 14.2266 5.15625C14.2266 4.96209 14.0692 4.80469 13.875 4.80469ZM5.625 4.80469H3.75C3.55584 4.80469 3.39844 4.96209 3.39844 5.15625C3.39844 5.35041 3.55584 5.50781 3.75 5.50781H5.625C5.81916 5.50781 5.97656 5.35041 5.97656 5.15625C5.97656 4.96209 5.81916 4.80469 5.625 4.80469ZM20.1562 4.80469H18.2812C18.087 4.80469 17.9297 4.96209 17.9297 5.15625C17.9297 5.35041 18.087 5.50781 18.2812 5.50781H20.1562C20.3505 5.50781 20.5078 5.35041 20.5078 5.15625C20.5078 4.96209 20.3505 4.80469 20.1562 4.80469Z" fill="#57676E"/>
</g>
<defs>
<clipPath id="clip0_1_253">
<rect width="24" height="24" fill="white"/>
</clipPath>
</defs>
</svg>
