<svg width="24" height="24" viewBox="0 0 24 24" fill="none" xmlns="http://www.w3.org/2000/svg">
<g clip-path="url(#clip0_1_120)">
<path d="M1.59998 22.3982C1.37915 22.3982 1.20007 22.2191 1.20007 21.9981V21.1981C1.20007 20.9773 1.37915 20.7982 1.59998 20.7982C1.82098 20.7982 2.00006 20.9773 2.00006 21.1981V21.9981C2.00006 22.2191 1.82098 22.3982 1.59998 22.3982Z" fill="#7F8C8D"/>
<path d="M3.19995 22.3982C2.97913 22.3982 2.80005 22.2191 2.80005 21.9981V3.18221C2.80151 1.51192 4.09296 0.126547 5.75903 0.00807811C7.42511 -0.110208 8.89947 1.07851 9.13714 2.73177L9.19592 3.14138C9.22742 3.36019 9.07544 3.56289 8.85681 3.5942C8.63818 3.62551 8.4353 3.47372 8.40399 3.25509L8.34558 2.84493C8.16852 1.60622 7.06402 0.715048 5.8158 0.803671C4.56757 0.892478 3.60022 1.93087 3.60004 3.18221V21.9981C3.60004 22.2191 3.42096 22.3982 3.19995 22.3982Z" fill="#95A5A5"/>
<path d="M11.5999 18.3982V9.9981C11.5999 9.11462 12.3164 8.39812 13.2001 8.39812H19.6C20.4836 8.39812 21.2 9.11462 21.2 9.9981V18.3982H11.5999Z" fill="#3762C7"/>
<path d="M9.99994 14.3981H11.5999C12.0417 14.3981 12.4001 14.7563 12.4001 15.1981V20.7982H10.7999C9.91626 20.7982 9.19995 20.0819 9.19995 19.1982V15.1981C9.19995 14.7563 9.55811 14.3981 9.99994 14.3981Z" fill="#7581F3"/>
<path d="M21.2 14.3981H22.7999C23.2418 14.3981 23.5999 14.7563 23.5999 15.1981V19.1982C23.5999 20.0819 22.8836 20.7982 21.9999 20.7982H20.4V15.1981C20.4 14.7563 20.7581 14.3981 21.2 14.3981Z" fill="#7581F3"/>
<path d="M12.4001 18.3983H20.4V20.7982H12.4001V18.3983Z" fill="#3762C7"/>
<path d="M14.0001 15.9981H18.8C19.6837 15.9981 20.4 16.7146 20.4 17.5983V18.3982H12.4001V17.5983C12.4001 16.7146 13.1164 15.9981 14.0001 15.9981Z" fill="#7581F3"/>
<path d="M11.2 20.7982L10.4 23.5982H11.5999L13.2001 20.7982H11.2Z" fill="#BDC3C7"/>
<path d="M21.6 20.7982L22.4 23.5982H21.2L19.6 20.7982H21.6Z" fill="#BDC3C7"/>
<path d="M2.00006 21.5982H4.40002C5.28369 21.5982 6 22.3145 6 23.1982H0.400085C0.400085 22.3145 1.11639 21.5982 2.00006 21.5982Z" fill="#95A5A5"/>
<path d="M2.80005 21.5982H3.60004C4.4837 21.5982 5.20001 22.3145 5.20001 23.1982H1.20007C1.20007 22.3145 1.91638 21.5982 2.80005 21.5982Z" fill="#BDC3C7"/>
<path d="M8.68123 3.20924C9.11684 3.13563 9.52974 3.42915 9.60335 3.86475L9.73665 4.65357L8.15901 4.92017L8.02571 4.13136C7.9521 3.69575 8.24562 3.28284 8.68123 3.20924Z" fill="#BDC3C7"/>
<path d="M11.2665 6.82945L7.42878 7.47819C7.2757 7.50401 7.12153 7.439 7.03327 7.31156C6.94483 7.18394 6.93842 7.01676 7.01643 6.88255L8.15882 4.92258L9.73646 4.6558L11.46 6.13291C11.5768 6.23417 11.6248 6.39347 11.5834 6.54234C11.5421 6.6912 11.4186 6.8029 11.2665 6.82945Z" fill="#95A5A5"/>
<path d="M23.5999 23.9982H0.400085C0.179077 23.9982 0 23.8191 0 23.5983C0 23.3773 0.179077 23.1982 0.400085 23.1982H23.5999C23.8209 23.1982 24 23.3773 24 23.5983C24 23.8191 23.8209 23.9982 23.5999 23.9982Z" fill="#4482C3"/>
</g>
<defs>
<clipPath id="clip0_1_120">
<rect width="24" height="24" fill="white"/>
</clipPath>
</defs>
</svg>
