<svg width="28" height="29" viewBox="0 0 28 29" fill="none" xmlns="http://www.w3.org/2000/svg">
<g clip-path="url(#clip0_1_110)" filter="url(#filter0_d_1_110)">
<path d="M11.5573 9.64082C11.6283 9.34011 11.6641 9.03162 11.6641 8.7185C11.6641 6.50425 9.86267 4.70283 7.64842 4.70283C5.43418 4.70283 3.63281 6.50425 3.63281 8.7185C3.63281 9.03162 3.66862 9.34006 3.73963 9.64082C2.66633 10.358 2 11.5754 2 12.8904C2 15.0443 3.75234 16.7967 5.9063 16.7967H9.39054C11.5445 16.7967 13.2968 15.0443 13.2968 12.8904C13.2968 11.5754 12.6305 10.358 11.5573 9.64082Z" fill="#7581F3"/>
<path d="M7.64839 10.0467C7.26007 10.0467 6.94526 10.3615 6.94526 10.7498V12.3336L6.52212 11.9105C6.24757 11.6359 5.80235 11.6359 5.52775 11.9105C5.25316 12.1851 5.25316 12.6302 5.52775 12.9048L6.94526 14.3223V20.0782C6.94526 20.4665 7.26007 20.7813 7.64839 20.7813C8.0367 20.7813 8.35152 20.4665 8.35152 20.0782V10.7498C8.35156 10.3615 8.03675 10.0467 7.64839 10.0467Z" fill="#85573C"/>
<path d="M24.2605 9.64097C24.3315 9.34027 24.3673 9.03178 24.3673 8.71866C24.3673 6.50441 22.5658 4.70299 20.3516 4.70299C18.1373 4.70299 16.3359 6.50441 16.3359 8.71866C16.3359 9.03178 16.3717 9.34018 16.4428 9.64097C15.3695 10.3581 14.7032 11.5756 14.7032 12.8905C14.7032 15.0445 16.4556 16.7968 18.6095 16.7968H22.0938C24.2477 16.7968 26.0001 15.0445 26.0001 12.8905C26 11.5756 25.3337 10.3582 24.2605 9.64097Z" fill="#3762C7"/>
<path d="M20.3516 10.0467C19.9633 10.0467 19.6485 10.3615 19.6485 10.7498V12.3336L19.2306 11.9158C18.9561 11.6412 18.5109 11.6412 18.2363 11.9158C17.9617 12.1904 17.9617 12.6355 18.2363 12.9101L19.6485 14.3223V20.0782C19.6485 20.4665 19.9633 20.7813 20.3516 20.7813C20.7399 20.7813 21.0547 20.4665 21.0547 20.0782V10.7498C21.0547 10.3615 20.7399 10.0467 20.3516 10.0467Z" fill="#6D3D20"/>
<path d="M23.8906 19.375H4.10939C2.94627 19.375 2 20.3213 2 21.4844V22.1875C2 22.5758 2.31477 22.8906 2.70313 22.8906H25.2968C25.6851 22.8906 26 22.5758 26 22.1875V21.4844C26 20.3213 25.0537 19.375 23.8906 19.375Z" fill="#9C7058"/>
<path d="M23.8905 19.375H14V22.8906H25.2969C25.6852 22.8906 26 22.5758 26 22.1875V21.4844C25.9999 20.3213 25.0537 19.375 23.8905 19.375Z" fill="#85573C"/>
<path d="M14 5.32808C15.165 5.32808 16.1094 4.38368 16.1094 3.21871C16.1094 2.05373 15.165 1.10933 14 1.10933C12.835 1.10933 11.8906 2.05373 11.8906 3.21871C11.8906 4.38368 12.835 5.32808 14 5.32808Z" fill="#FFDA44"/>
<path d="M14 1.10933V5.32808C15.1632 5.32808 16.1094 4.38182 16.1094 3.21871C16.1094 2.0556 15.1631 1.10933 14 1.10933Z" fill="#FFB655"/>
</g>
<defs>
<filter id="filter0_d_1_110" x="0" y="0" width="28" height="30" filterUnits="userSpaceOnUse" color-interpolation-filters="sRGB">
<feFlood flood-opacity="0" result="BackgroundImageFix"/>
<feColorMatrix in="SourceAlpha" type="matrix" values="0 0 0 0 0 0 0 0 0 0 0 0 0 0 0 0 0 0 127 0" result="hardAlpha"/>
<feOffset dy="4"/>
<feGaussianBlur stdDeviation="1"/>
<feColorMatrix type="matrix" values="0 0 0 0 0 0 0 0 0 0 0 0 0 0 0 0 0 0 0.2 0"/>
<feBlend mode="normal" in2="BackgroundImageFix" result="effect1_dropShadow_1_110"/>
<feBlend mode="normal" in="SourceGraphic" in2="effect1_dropShadow_1_110" result="shape"/>
</filter>
<clipPath id="clip0_1_110">
<rect width="24" height="24" fill="white" transform="translate(2)"/>
</clipPath>
</defs>
</svg>
