<svg width="24" height="24" viewBox="0 0 24 24" fill="none" xmlns="http://www.w3.org/2000/svg">
<g clip-path="url(#clip0_1_196)">
<path d="M5.94281 5.47538C5.29645 5.08083 4.42045 5.33883 3.96093 5.90082V4.31696C4.63865 3.64355 4.55498 2.23008 3.62165 1.81201C2.71711 2.25254 2.6024 3.58332 3.25781 4.28063V5.89501C2.79811 5.33837 1.9237 5.08065 1.28067 5.47538C1.13339 6.50541 2.31473 7.33758 3.25781 7.09327V8.72607H3.96093V7.09201C4.90233 7.33923 6.09394 6.50747 5.94281 5.47538Z" fill="#B3E59F"/>
<path d="M7.75781 14.0742H0V17.8242H7.75781V14.0742Z" fill="#7581F3"/>
<path d="M7.75781 17.8242H0V21.4805H7.75781V17.8242Z" fill="#7581F3"/>
<path d="M7.75781 14.0742H5.88281V17.8242H7.75781V14.0742Z" fill="#3762C7"/>
<path d="M7.75781 17.8242H5.88281V21.4805H7.75781V17.8242Z" fill="#3762C7"/>
<path d="M8.0356 0.756281C8.0356 0.435656 8.29547 0.175781 8.61605 0.175781H21.7321C22.0527 0.175781 22.3126 0.435656 22.3126 0.756281V9.31308C22.3126 9.63365 22.0527 9.89353 21.7321 9.89353H8.61605C8.29547 9.89353 8.0356 9.63365 8.0356 9.31308V0.756281Z" fill="#857E87"/>
<path d="M21.7321 0.175781H19.8571C20.1777 0.175781 20.4375 0.435656 20.4375 0.756281V9.31308C20.4375 9.63365 20.1777 9.89353 19.8571 9.89353H21.7321C22.0527 9.89353 22.3125 9.63365 22.3125 9.31308V0.756281C22.3125 0.435656 22.0527 0.175781 21.7321 0.175781Z" fill="#5D5360"/>
<path d="M16.658 9.79993H13.6901V11.877H16.658V9.79993Z" fill="#DFDDE0"/>
<path d="M16.6581 9.79993H15.7206V11.877H16.6581V9.79993Z" fill="#C8C5C9"/>
<path d="M8.0356 9.31299C8.0356 9.63357 8.29547 9.89344 8.61605 9.89344H21.7321C22.0527 9.89344 22.3126 9.63357 22.3126 9.31299V7.92469H8.0356V9.31299Z" fill="#F0EEF0"/>
<path d="M20.4375 7.92492V9.31322C20.4375 9.63379 20.1777 9.89367 19.8571 9.89367H21.7321C22.0527 9.89367 22.3125 9.63379 22.3125 9.31322V7.92492H20.4375Z" fill="#DFDDE0"/>
<path d="M5.62277 8.46827C5.7536 8.46827 5.85967 8.57547 5.85724 8.70625C5.82621 10.3674 5.44089 11.8198 3.53908 11.8198C1.59232 11.8198 1.24783 10.3671 1.22064 8.70583C1.21849 8.57519 1.32443 8.46827 1.45511 8.46827H5.62277Z" fill="#EFD27C"/>
<path d="M5.62284 8.46827H4.21659C4.34741 8.46827 4.45349 8.57547 4.45105 8.7063C4.42424 10.1406 4.1324 11.4185 2.82913 11.7409C3.03843 11.7919 3.27341 11.8199 3.53915 11.8199C5.44101 11.8199 5.82627 10.3674 5.8573 8.7063C5.85974 8.57547 5.75366 8.46827 5.62284 8.46827Z" fill="#EAA96A"/>
<path d="M23.6484 11.5127H0.351562C0.157359 11.5127 0 11.6701 0 11.8643V14.5195H23.2969V23.4726C23.2969 23.926 24 23.926 24 23.4726V11.8643C24 11.6701 23.8426 11.5127 23.6484 11.5127Z" fill="#7581F3"/>
<path d="M23.6484 11.5127H21.7734C21.9676 11.5127 22.125 11.6701 22.125 11.8643V13.8164V14.5195H23.2969V23.4726C23.2969 23.926 24 23.926 24 23.4726V11.8643C24 11.6701 23.8426 11.5127 23.6484 11.5127Z" fill="#3762C7"/>
<path d="M7.75781 17.4727H0V18.1758H7.75781V17.4727Z" fill="#7581F3"/>
<path d="M7.75781 17.4727H5.88281V18.1758H7.75781V17.4727Z" fill="#3762C7"/>
<path d="M0 21.1289V21.832V23.4579C0 23.9175 0.703125 23.9346 0.703125 23.4727V21.832H7.05469V23.4841C7.05469 23.9348 7.75781 23.9174 7.75781 23.4727V21.1289H0Z" fill="#7581F3"/>
<path d="M5.88281 21.1289V21.832H7.05469V23.4799C7.05469 23.9335 7.75781 23.9197 7.75781 23.4727V21.1289H5.88281Z" fill="#3762C7"/>
<path d="M5.22654 16.3477H2.55467C2.10124 16.3477 2.10124 15.6445 2.55467 15.6445H5.22654C5.67996 15.6445 5.67996 16.3477 5.22654 16.3477Z" fill="#3762C7"/>
<path d="M5.22654 20.0039H2.55467C2.10124 20.0039 2.10124 19.3008 2.55467 19.3008H5.22654C5.67996 19.3008 5.67996 20.0039 5.22654 20.0039Z" fill="#3762C7"/>
<path d="M20.5363 3.82759V13.9292C20.5363 13.9292 18.2394 12.9682 18.2394 8.84322C18.2394 4.71822 20.5363 3.82759 20.5363 3.82759Z" fill="#EAEAEA"/>
<path d="M20.556 15.8633C20.5378 17.4623 20.2661 18.4761 18.4738 18.4761H10.8801C10.8801 18.4761 10.5988 15.8511 14.2551 15.8511C16.9738 15.8511 20.5363 15.8511 20.5363 15.8511" fill="#EAEAEA"/>
<path d="M20.625 23.1211H16.125V18.8276H18.4737C19.2808 18.8276 19.8642 18.633 20.2574 18.2327C20.9464 17.5313 20.9254 16.3567 20.8989 14.8696C20.8934 14.5671 20.8878 3.82758 20.8878 3.82758C20.8878 3.37416 20.1847 3.37416 20.1847 3.82758C20.1847 3.82758 20.1904 14.5766 20.1958 14.8822C20.2195 16.2045 20.2382 17.249 19.7558 17.74C19.5017 17.9987 19.0824 18.1245 18.4737 18.1245H10.88C10.4266 18.1245 10.4266 18.8276 10.88 18.8276H15.4219V19.4604H14.0391C13.5857 19.4604 13.5857 20.1635 14.0391 20.1635H15.4219V23.1211H10.9219C10.4685 23.1211 10.4685 23.8242 10.9219 23.8242H20.625C21.0784 23.8242 21.0784 23.1211 20.625 23.1211Z" fill="#3762C7"/>
</g>
<defs>
<clipPath id="clip0_1_196">
<rect width="24" height="24" fill="white"/>
</clipPath>
</defs>
</svg>
